<?xml version="1.0" encoding="UTF-8" standalone="no"?>
<!-- Created with Inkscape (http://www.inkscape.org/) -->

<svg
    xmlns:dc="http://purl.org/dc/elements/1.1/"
    xmlns:cc="http://creativecommons.org/ns#"
    xmlns:rdf="http://www.w3.org/1999/02/22-rdf-syntax-ns#"
    xmlns:svg="http://www.w3.org/2000/svg"
    xmlns="http://www.w3.org/2000/svg"
    xmlns:sodipodi="http://sodipodi.sourceforge.net/DTD/sodipodi-0.dtd"
    xmlns:inkscape="http://www.inkscape.org/namespaces/inkscape"
    width="468px"
    height="60px"
    id="svg3081"
    version="1.1"
    inkscape:version="0.48.5 r10040"
    sodipodi:docname="cloudExplorerLogo.svg">
    <defs
        id="defs3083" />
    <sodipodi:namedview
        id="base"
        pagecolor="#ffffff"
        bordercolor="#666666"
        borderopacity="1.0"
        inkscape:pageopacity="0.0"
        inkscape:pageshadow="2"
        inkscape:zoom="1.2"
        inkscape:cx="270.33333"
        inkscape:cy="-36.666667"
        inkscape:document-units="px"
        inkscape:current-layer="layer1"
        showgrid="false"
        inkscape:window-width="1366"
        inkscape:window-height="673"
        inkscape:window-x="0"
        inkscape:window-y="0"
        inkscape:window-maximized="1" />
    <metadata
        id="metadata3086">
        <rdf:RDF>
            <cc:Work
                rdf:about="">
                <dc:format>image/svg+xml</dc:format>
                <dc:type
                    rdf:resource="http://purl.org/dc/dcmitype/StillImage" />
                <dc:title />
            </cc:Work>
        </rdf:RDF>
    </metadata>
    <g
        id="layer1"
        inkscape:label="Layer 1"
        inkscape:groupmode="layer"
        style="display:inline">
        <text
            xml:space="preserve"
            style="font-size:40px;font-style:normal;font-variant:normal;font-weight:normal;font-stretch:normal;text-align:start;line-height:125%;letter-spacing:0px;word-spacing:0px;writing-mode:lr-tb;text-anchor:start;fill:#000000;fill-opacity:1;stroke:none;font-family:Sans;-inkscape-font-specification:Sans"
            x="37.5"
            y="52.5"
            id="text3089"
            sodipodi:linespacing="125%"><tspan
            sodipodi:role="line"
            id="tspan3238"
            x="37.5"
            y="52.5">Cloud         Explorer</tspan></text>
        <text
            xml:space="preserve"
            style="font-size:40px;font-style:normal;font-weight:normal;line-height:125%;letter-spacing:0px;word-spacing:0px;fill:#000000;fill-opacity:1;stroke:none;font-family:Sans"
            x="35.833332"
            y="26.666666"
            id="text3094"
            sodipodi:linespacing="125%"><tspan
            sodipodi:role="line"
            id="tspan3096"
            x="35.833332"
            y="26.666666" /></text>
        <text
            xml:space="preserve"
            style="font-size:40px;font-style:normal;font-weight:normal;line-height:125%;letter-spacing:0px;word-spacing:0px;fill:#000000;fill-opacity:1;stroke:none;font-family:Sans"
            x="29.166668"
            y="20.000002"
            id="text3098"
            sodipodi:linespacing="125%"><tspan
            sodipodi:role="line"
            id="tspan3100"
            x="29.166668"
            y="20.000002" /></text>
        <path
            style="fill:#0000ff;fill-opacity:1"
            d="m 178.93501,57.591706 c 0,-0.130338 -0.84317,-0.316058 -1.8737,-0.412698 -2.18638,-0.205037 -4.11372,-0.737511 -5.00067,-1.381563 -0.34534,-0.250769 -0.7362,-0.458208 -0.86857,-0.460977 -0.48107,-0.01004 -2.88677,-1.573016 -4.50947,-2.929773 -0.9797,-0.819139 -1.90079,-1.920013 -2.24384,-2.681801 -0.32006,-0.710746 -0.71227,-1.292268 -0.87158,-1.292268 -0.87231,0 -2.00893,-5.209162 -1.71351,-7.853058 0.22398,-2.004457 1.23815,-5.398825 1.6937,-5.668706 0.1465,-0.08679 0.67794,-0.761785 1.18096,-1.49999 0.88044,-1.292067 3.14553,-3.494018 3.5942,-3.494018 0.11947,0 0.72401,-0.41742 1.34342,-0.927594 1.11234,-0.916167 1.12308,-0.947666 0.8711,-2.556284 -0.26288,-1.678245 0.0443,-4.787106 0.50054,-5.064573 0.14171,-0.0862 0.54006,-0.716346 0.88522,-1.400324 0.52536,-1.041047 3.66935,-4.145323 4.19836,-4.145323 0.0888,0 1.11191,-0.37308 2.27356,-0.829064 1.78036,-0.698858 2.51418,-0.829064 4.67241,-0.829064 2.33739,0 2.78626,0.09626 5.15492,1.105418 1.42703,0.607981 2.68135,1.105419 2.78739,1.105419 0.10602,0 0.53933,-0.590707 0.96289,-1.312685 1.56136,-2.661441 5.49663,-6.4017233 8.22962,-7.8218755 0.93846,-0.4876521 1.77961,-0.9807244 1.86922,-1.0957181 0.0896,-0.1149977 1.11608,-0.5378492 2.28104,-0.9396804 1.16495,-0.4018313 2.48469,-0.8970416 2.93275,-1.1004671 2.5515,-1.1584179 10.56392,-1.4749014 15.15256,-0.598514 1.43379,0.273842 2.68022,0.5777224 2.76982,0.6752888 0.0896,0.097569 1.04276,0.4729718 2.1181,0.8342308 1.07535,0.361259 2.10181,0.8059062 2.28104,0.9881042 0.17922,0.1821979 1.05905,0.6749782 1.95517,1.0950667 1.90785,0.8943776 6.38875,4.6961626 6.99286,5.9330426 0.22995,0.470807 0.53665,0.856014 0.68156,0.856014 0.14491,0 0.58439,0.590709 0.97663,1.312685 0.39223,0.721978 0.84278,1.499227 1.00121,1.727219 1.15127,1.656701 2.23148,5.953342 2.23741,8.899511 l 0.005,2.128818 1.46637,0.550103 c 0.80651,0.302556 1.46637,0.673074 1.46637,0.823373 0,0.150298 0.25662,0.343081 0.57026,0.428407 0.5351,0.14557 2.19396,1.205732 2.79614,1.786996 0.1489,0.143721 0.66214,0.629358 1.14053,1.07919 0.92891,0.873468 2.33857,3.020529 2.33707,3.559609 -7.5e-4,0.179142 0.18798,0.49004 0.41885,0.690888 0.63988,0.556718 1.20956,3.075047 1.20956,5.347052 0,2.036774 -0.53054,4.844286 -0.96472,5.105086 -0.12652,0.076 -0.63603,0.872346 -1.13226,1.769666 -0.49623,0.897319 -1.2622,1.954378 -1.70217,2.349019 -0.43997,0.394635 -1.04318,1.059511 -1.34048,1.4775 -0.29729,0.417985 -0.70331,0.759976 -0.90227,0.759976 -0.19895,0 -0.70612,0.310897 -1.12705,0.690886 -0.42094,0.379987 -0.94926,0.690889 -1.17405,0.690889 -0.2248,0 -0.60805,0.169056 -0.85169,0.375684 -0.73578,0.623994 -3.45881,1.53356 -5.16614,1.725642 -0.8835,0.09939 -1.60638,0.289056 -1.60638,0.421469 0,0.1326 -5.63598,0.240753 -12.54567,0.240753 l -12.54567,0 0,-7.599758 0,-7.599759 6.50577,0 c 6.14978,0 6.52465,-0.02994 6.85098,-0.54704 0.43527,-0.689739 0.13126,-1.756495 -0.67746,-2.37718 -0.34232,-0.262734 -0.62241,-0.570352 -0.62241,-0.683589 0,-0.113241 -0.47657,-0.634739 -1.05905,-1.158887 -0.58248,-0.524148 -1.53746,-1.438192 -2.1222,-2.031209 -2.4161,-2.450327 -3.20685,-3.237886 -3.85001,-3.834461 -0.37233,-0.34536 -1.00682,-0.985725 -1.40999,-1.423031 -0.88749,-0.962628 -3.26618,-3.355413 -3.94149,-3.964846 -0.26884,-0.242608 -0.92708,-0.934441 -1.46276,-1.537406 -1.67276,-1.882885 -2.44974,-2.321509 -4.12939,-2.331167 -1.32479,-0.0075 -1.62948,0.106026 -2.38446,0.88942 -2.10408,2.183232 -2.99807,3.051183 -3.83587,3.724146 -0.49287,0.395893 -0.89612,0.882065 -0.89612,1.080383 0,0.198318 -0.43992,0.636406 -0.97759,0.973531 -0.53767,0.337125 -0.97758,0.763224 -0.97758,0.946889 0,0.183662 -0.51323,0.716093 -1.14052,1.183181 -0.62728,0.467088 -1.14052,0.955731 -1.14052,1.085874 0,0.130141 -0.36659,0.5287 -0.81465,0.885682 -0.44806,0.35698 -0.81465,0.739302 -0.81465,0.8496 0,0.197667 -1.38704,1.536204 -3.27215,3.157739 -0.53023,0.456093 -0.96405,0.953935 -0.96405,1.106318 0,0.152381 -0.43991,0.629185 -0.97759,1.059559 -1.11005,0.888537 -1.37501,2.481668 -0.46214,2.778749 0.2835,0.09226 3.36289,0.167745 6.8431,0.167745 l 6.32765,0 0,7.599759 0,7.599758 -11.73102,0 c -6.45206,0 -11.73102,-0.106647 -11.73102,-0.236987 z"
            id="path2987"
            inkscape:connector-curvature="0" />
    </g>
    <g
        inkscape:groupmode="layer"
        id="layer2"
        inkscape:label="Layer"
        style="display:inline" />
</svg>
